solid OpenSCAD_Model
  facet normal -1 0 0
    outer loop
      vertex 5.5 10 0
      vertex 5.5 3 1.5
      vertex 5.5 10 3
    endloop
  endfacet
  facet normal -1 0 0
    outer loop
      vertex 5.5 10 0
      vertex 5.5 2.92658 1.03647
      vertex 5.5 3 1.5
    endloop
  endfacet
  facet normal -1 0 0
    outer loop
      vertex 5.5 10 0
      vertex 5.5 2.71352 0.618321
      vertex 5.5 2.92658 1.03647
    endloop
  endfacet
  facet normal -1 0 0
    outer loop
      vertex 5.5 10 0
      vertex 5.5 2.38168 0.286474
      vertex 5.5 2.71352 0.618321
    endloop
  endfacet
  facet normal -1 0 0
    outer loop
      vertex 5.5 10 0
      vertex 5.5 1.96352 0.0734148
      vertex 5.5 2.38168 0.286474
    endloop
  endfacet
  facet normal -1 0 -0
    outer loop
      vertex 5.5 1.96352 0.0734148
      vertex 5.5 10 0
      vertex 5.5 1.5 0
    endloop
  endfacet
  facet normal -1 0 0
    outer loop
      vertex 5.5 3 1.5
      vertex 5.5 3 3
      vertex 5.5 10 3
    endloop
  endfacet
  facet normal -1 0 0
    outer loop
      vertex 5.5 2.92658 1.96352
      vertex 5.5 3 3
      vertex 5.5 3 1.5
    endloop
  endfacet
  facet normal -1 0 0
    outer loop
      vertex 5.5 2.71352 2.38168
      vertex 5.5 3 3
      vertex 5.5 2.92658 1.96352
    endloop
  endfacet
  facet normal -1 0 0
    outer loop
      vertex 5.5 2.38168 2.71352
      vertex 5.5 3 3
      vertex 5.5 2.71352 2.38168
    endloop
  endfacet
  facet normal -1 0 0
    outer loop
      vertex 5.5 1.96352 2.92658
      vertex 5.5 3 3
      vertex 5.5 2.38168 2.71352
    endloop
  endfacet
  facet normal -1 0 0
    outer loop
      vertex 5.5 1.5 3
      vertex 5.5 3 3
      vertex 5.5 1.96352 2.92658
    endloop
  endfacet
  facet normal -1 0 0
    outer loop
      vertex 5.5 3 3
      vertex 5.5 1.5 3
      vertex 5.5 3 15
    endloop
  endfacet
  facet normal -1 0 0
    outer loop
      vertex 5.5 0 15
      vertex 5.5 1.5 3
      vertex 5.5 1.03647 2.92658
    endloop
  endfacet
  facet normal -1 0 0
    outer loop
      vertex 5.5 0 15
      vertex 5.5 1.03647 2.92658
      vertex 5.5 0.618321 2.71352
    endloop
  endfacet
  facet normal -1 0 0
    outer loop
      vertex 5.5 0 15
      vertex 5.5 0.618321 2.71352
      vertex 5.5 0.286474 2.38168
    endloop
  endfacet
  facet normal -1 0 0
    outer loop
      vertex 5.5 0 15
      vertex 5.5 0.286474 2.38168
      vertex 5.5 0.0734148 1.96352
    endloop
  endfacet
  facet normal -1 0 0
    outer loop
      vertex 5.5 1.5 3
      vertex 5.5 0 15
      vertex 5.5 3 15
    endloop
  endfacet
  facet normal -1 0 0
    outer loop
      vertex 5.5 0 15
      vertex 5.5 0.0734148 1.96352
      vertex 5.5 0 1.5
    endloop
  endfacet
  facet normal -1 0 0
    outer loop
      vertex 5.5 0 0
      vertex 5.5 1.03647 0.0734148
      vertex 5.5 1.5 0
    endloop
  endfacet
  facet normal -1 0 0
    outer loop
      vertex 5.5 0 0
      vertex 5.5 0.618321 0.286474
      vertex 5.5 1.03647 0.0734148
    endloop
  endfacet
  facet normal -1 0 0
    outer loop
      vertex 5.5 0 0
      vertex 5.5 0.286474 0.618321
      vertex 5.5 0.618321 0.286474
    endloop
  endfacet
  facet normal -1 0 0
    outer loop
      vertex 5.5 0 0
      vertex 5.5 0.0734148 1.03647
      vertex 5.5 0.286474 0.618321
    endloop
  endfacet
  facet normal -1 -0 0
    outer loop
      vertex 5.5 0.0734148 1.03647
      vertex 5.5 0 0
      vertex 5.5 0 1.5
    endloop
  endfacet
  facet normal -0 0 1
    outer loop
      vertex 5.5 3 15
      vertex 20.5 0 15
      vertex 20.5 3 15
    endloop
  endfacet
  facet normal 0 0 1
    outer loop
      vertex 20.5 0 15
      vertex 5.5 3 15
      vertex 5.5 0 15
    endloop
  endfacet
  facet normal 1 0 0
    outer loop
      vertex 20.5 3 1.5
      vertex 20.5 10 3
      vertex 20.5 3 3
    endloop
  endfacet
  facet normal 1 0 0
    outer loop
      vertex 20.5 10 3
      vertex 20.5 3 1.5
      vertex 20.5 10 0
    endloop
  endfacet
  facet normal 1 -0 0
    outer loop
      vertex 20.5 2.92658 1.03647
      vertex 20.5 10 0
      vertex 20.5 3 1.5
    endloop
  endfacet
  facet normal 1 -0 0
    outer loop
      vertex 20.5 2.71352 0.618321
      vertex 20.5 10 0
      vertex 20.5 2.92658 1.03647
    endloop
  endfacet
  facet normal 1 -0 0
    outer loop
      vertex 20.5 2.38168 0.286474
      vertex 20.5 10 0
      vertex 20.5 2.71352 0.618321
    endloop
  endfacet
  facet normal 1 -0 0
    outer loop
      vertex 20.5 1.96352 0.0734148
      vertex 20.5 10 0
      vertex 20.5 2.38168 0.286474
    endloop
  endfacet
  facet normal 1 0 0
    outer loop
      vertex 20.5 10 0
      vertex 20.5 1.96352 0.0734148
      vertex 20.5 1.5 0
    endloop
  endfacet
  facet normal 1 0 0
    outer loop
      vertex 20.5 1.5 3
      vertex 20.5 3 3
      vertex 20.5 3 15
    endloop
  endfacet
  facet normal 1 0 0
    outer loop
      vertex 20.5 3 3
      vertex 20.5 2.92658 1.96352
      vertex 20.5 3 1.5
    endloop
  endfacet
  facet normal 1 0 0
    outer loop
      vertex 20.5 3 3
      vertex 20.5 2.71352 2.38168
      vertex 20.5 2.92658 1.96352
    endloop
  endfacet
  facet normal 1 0 0
    outer loop
      vertex 20.5 3 3
      vertex 20.5 2.38168 2.71352
      vertex 20.5 2.71352 2.38168
    endloop
  endfacet
  facet normal 1 0 0
    outer loop
      vertex 20.5 3 3
      vertex 20.5 1.96352 2.92658
      vertex 20.5 2.38168 2.71352
    endloop
  endfacet
  facet normal 1 0 0
    outer loop
      vertex 20.5 3 3
      vertex 20.5 1.5 3
      vertex 20.5 1.96352 2.92658
    endloop
  endfacet
  facet normal 1 -0 0
    outer loop
      vertex 20.5 0 15
      vertex 20.5 1.5 3
      vertex 20.5 3 15
    endloop
  endfacet
  facet normal 1 0 0
    outer loop
      vertex 20.5 1.5 3
      vertex 20.5 0 15
      vertex 20.5 1.03647 2.92658
    endloop
  endfacet
  facet normal 1 0 0
    outer loop
      vertex 20.5 1.03647 2.92658
      vertex 20.5 0 15
      vertex 20.5 0.618321 2.71352
    endloop
  endfacet
  facet normal 1 0 0
    outer loop
      vertex 20.5 0.618321 2.71352
      vertex 20.5 0 15
      vertex 20.5 0.286474 2.38168
    endloop
  endfacet
  facet normal 1 0 0
    outer loop
      vertex 20.5 0.286474 2.38168
      vertex 20.5 0 15
      vertex 20.5 0.0734148 1.96352
    endloop
  endfacet
  facet normal 1 0 0
    outer loop
      vertex 20.5 0.0734148 1.96352
      vertex 20.5 0 15
      vertex 20.5 0 1.5
    endloop
  endfacet
  facet normal 1 0 0
    outer loop
      vertex 20.5 1.03647 0.0734148
      vertex 20.5 0 0
      vertex 20.5 1.5 0
    endloop
  endfacet
  facet normal 1 0 0
    outer loop
      vertex 20.5 0.618321 0.286474
      vertex 20.5 0 0
      vertex 20.5 1.03647 0.0734148
    endloop
  endfacet
  facet normal 1 0 0
    outer loop
      vertex 20.5 0.286474 0.618321
      vertex 20.5 0 0
      vertex 20.5 0.618321 0.286474
    endloop
  endfacet
  facet normal 1 0 0
    outer loop
      vertex 20.5 0.0734148 1.03647
      vertex 20.5 0 0
      vertex 20.5 0.286474 0.618321
    endloop
  endfacet
  facet normal 1 0 0
    outer loop
      vertex 20.5 0 0
      vertex 20.5 0.0734148 1.03647
      vertex 20.5 0 1.5
    endloop
  endfacet
  facet normal 0 1 -0
    outer loop
      vertex 20.5 3 3
      vertex 5.5 3 15
      vertex 20.5 3 15
    endloop
  endfacet
  facet normal 0 1 0
    outer loop
      vertex 5.5 3 15
      vertex 20.5 3 3
      vertex 5.5 3 3
    endloop
  endfacet
  facet normal 0 0 -1
    outer loop
      vertex 5.5 1.5 0
      vertex 20.5 1.5 0
      vertex 20.5 0 0
    endloop
  endfacet
  facet normal 0 0 -1
    outer loop
      vertex 5.5 1.5 0
      vertex 20.5 0 0
      vertex 5.5 0 0
    endloop
  endfacet
  facet normal 0 0 -1
    outer loop
      vertex 20.5 1.5 0
      vertex 5.5 1.5 0
      vertex 20.5 10 0
    endloop
  endfacet
  facet normal -0 0 -1
    outer loop
      vertex 20.5 10 0
      vertex 5.5 1.5 0
      vertex 5.5 10 0
    endloop
  endfacet
  facet normal 0 -1 0
    outer loop
      vertex 5.5 0 1.5
      vertex 20.5 0 15
      vertex 5.5 0 15
    endloop
  endfacet
  facet normal 0 -1 0
    outer loop
      vertex 5.5 0 1.5
      vertex 20.5 0 1.5
      vertex 20.5 0 15
    endloop
  endfacet
  facet normal 0 -1 0
    outer loop
      vertex 5.5 0 0
      vertex 20.5 0 1.5
      vertex 5.5 0 1.5
    endloop
  endfacet
  facet normal 0 -1 -0
    outer loop
      vertex 20.5 0 1.5
      vertex 5.5 0 0
      vertex 20.5 0 0
    endloop
  endfacet
  facet normal -0 0 1
    outer loop
      vertex 5.5 10 3
      vertex 20.5 3 3
      vertex 20.5 10 3
    endloop
  endfacet
  facet normal 0 0 1
    outer loop
      vertex 20.5 3 3
      vertex 5.5 10 3
      vertex 5.5 3 3
    endloop
  endfacet
  facet normal 0 1 -0
    outer loop
      vertex 20.5 10 0
      vertex 5.5 10 3
      vertex 20.5 10 3
    endloop
  endfacet
  facet normal 0 1 0
    outer loop
      vertex 5.5 10 3
      vertex 20.5 10 0
      vertex 5.5 10 0
    endloop
  endfacet
  facet normal 0 0.156434 -0.987688
    outer loop
      vertex 2.5 1.5 0
      vertex 5.5 1.96352 0.0734148
      vertex 5.5 1.5 0
    endloop
  endfacet
  facet normal 0 0.156434 -0.987688
    outer loop
      vertex 5.5 1.96352 0.0734148
      vertex 2.5 1.5 0
      vertex 2.5 1.96352 0.0734148
    endloop
  endfacet
  facet normal 0 0.156434 -0.987688
    outer loop
      vertex 20.5 1.5 0
      vertex 23.5 1.96352 0.0734148
      vertex 23.5 1.5 0
    endloop
  endfacet
  facet normal 0 0.156434 -0.987688
    outer loop
      vertex 23.5 1.96352 0.0734148
      vertex 20.5 1.5 0
      vertex 20.5 1.96352 0.0734148
    endloop
  endfacet
  facet normal -0 0.156436 0.987688
    outer loop
      vertex 2.5 1.96352 2.92658
      vertex 5.5 1.5 3
      vertex 5.5 1.96352 2.92658
    endloop
  endfacet
  facet normal 0 0.156436 0.987688
    outer loop
      vertex 5.5 1.5 3
      vertex 2.5 1.96352 2.92658
      vertex 2.5 1.5 3
    endloop
  endfacet
  facet normal -0 0.156436 0.987688
    outer loop
      vertex 20.5 1.96352 2.92658
      vertex 23.5 1.5 3
      vertex 23.5 1.96352 2.92658
    endloop
  endfacet
  facet normal 0 0.156436 0.987688
    outer loop
      vertex 23.5 1.5 3
      vertex 20.5 1.96352 2.92658
      vertex 20.5 1.5 3
    endloop
  endfacet
  facet normal 0 0.987688 -0.156435
    outer loop
      vertex 5.5 2.92658 1.03647
      vertex 2.5 3 1.5
      vertex 5.5 3 1.5
    endloop
  endfacet
  facet normal 0 0.987688 -0.156435
    outer loop
      vertex 2.5 3 1.5
      vertex 5.5 2.92658 1.03647
      vertex 2.5 2.92658 1.03647
    endloop
  endfacet
  facet normal 0 0.987688 -0.156435
    outer loop
      vertex 23.5 2.92658 1.03647
      vertex 20.5 3 1.5
      vertex 23.5 3 1.5
    endloop
  endfacet
  facet normal 0 0.987688 -0.156435
    outer loop
      vertex 20.5 3 1.5
      vertex 23.5 2.92658 1.03647
      vertex 20.5 2.92658 1.03647
    endloop
  endfacet
  facet normal 0 0.45399 -0.891007
    outer loop
      vertex 2.5 1.96352 0.0734148
      vertex 5.5 2.38168 0.286474
      vertex 5.5 1.96352 0.0734148
    endloop
  endfacet
  facet normal 0 0.45399 -0.891007
    outer loop
      vertex 5.5 2.38168 0.286474
      vertex 2.5 1.96352 0.0734148
      vertex 2.5 2.38168 0.286474
    endloop
  endfacet
  facet normal 0 0.45399 -0.891007
    outer loop
      vertex 20.5 1.96352 0.0734148
      vertex 23.5 2.38168 0.286474
      vertex 23.5 1.96352 0.0734148
    endloop
  endfacet
  facet normal 0 0.45399 -0.891007
    outer loop
      vertex 23.5 2.38168 0.286474
      vertex 20.5 1.96352 0.0734148
      vertex 20.5 2.38168 0.286474
    endloop
  endfacet
  facet normal 0 -0.987688 -0.156433
    outer loop
      vertex 2.5 0.0734148 1.03647
      vertex 5.5 0 1.5
      vertex 2.5 0 1.5
    endloop
  endfacet
  facet normal 0 -0.987688 -0.156433
    outer loop
      vertex 5.5 0 1.5
      vertex 2.5 0.0734148 1.03647
      vertex 5.5 0.0734148 1.03647
    endloop
  endfacet
  facet normal 0 -0.987688 -0.156433
    outer loop
      vertex 20.5 0.0734148 1.03647
      vertex 23.5 0 1.5
      vertex 20.5 0 1.5
    endloop
  endfacet
  facet normal 0 -0.987688 -0.156433
    outer loop
      vertex 23.5 0 1.5
      vertex 20.5 0.0734148 1.03647
      vertex 23.5 0.0734148 1.03647
    endloop
  endfacet
  facet normal -1 0 -1.54236e-06
    outer loop
      vertex 2.5 1.5 0
      vertex 2.5 0.286474 0.618321
      vertex 2.5 2.71352 0.618321
    endloop
  endfacet
  facet normal 0 -0.891007 -0.45399
    outer loop
      vertex 2.5 0.286474 0.618321
      vertex 5.5 0.0734148 1.03647
      vertex 2.5 0.0734148 1.03647
    endloop
  endfacet
  facet normal 0 -0.891007 -0.45399
    outer loop
      vertex 5.5 0.0734148 1.03647
      vertex 2.5 0.286474 0.618321
      vertex 5.5 0.286474 0.618321
    endloop
  endfacet
  facet normal 0 -0.891007 -0.45399
    outer loop
      vertex 20.5 0.286474 0.618321
      vertex 23.5 0.0734148 1.03647
      vertex 20.5 0.0734148 1.03647
    endloop
  endfacet
  facet normal 0 -0.891007 -0.45399
    outer loop
      vertex 23.5 0.0734148 1.03647
      vertex 20.5 0.286474 0.618321
      vertex 23.5 0.286474 0.618321
    endloop
  endfacet
  facet normal 0 0.707107 -0.707107
    outer loop
      vertex 5.5 2.38168 0.286474
      vertex 2.5 2.71352 0.618321
      vertex 5.5 2.71352 0.618321
    endloop
  endfacet
  facet normal 0 0.707107 -0.707107
    outer loop
      vertex 2.5 2.71352 0.618321
      vertex 5.5 2.38168 0.286474
      vertex 2.5 2.38168 0.286474
    endloop
  endfacet
  facet normal 0 0.707107 -0.707107
    outer loop
      vertex 23.5 2.38168 0.286474
      vertex 20.5 2.71352 0.618321
      vertex 23.5 2.71352 0.618321
    endloop
  endfacet
  facet normal 0 0.707107 -0.707107
    outer loop
      vertex 20.5 2.71352 0.618321
      vertex 23.5 2.38168 0.286474
      vertex 20.5 2.38168 0.286474
    endloop
  endfacet
  facet normal -1 2.98546e-06 -5.85929e-06
    outer loop
      vertex 2.5 1.96352 0.0734148
      vertex 2.5 2.71352 0.618321
      vertex 2.5 2.38168 0.286474
    endloop
  endfacet
  facet normal 0 0.891007 0.45399
    outer loop
      vertex 23.5 2.92658 1.96352
      vertex 20.5 2.71352 2.38168
      vertex 23.5 2.71352 2.38168
    endloop
  endfacet
  facet normal 0 0.891007 0.45399
    outer loop
      vertex 20.5 2.71352 2.38168
      vertex 23.5 2.92658 1.96352
      vertex 20.5 2.92658 1.96352
    endloop
  endfacet
  facet normal 0 0.891007 0.45399
    outer loop
      vertex 5.5 2.92658 1.96352
      vertex 2.5 2.71352 2.38168
      vertex 5.5 2.71352 2.38168
    endloop
  endfacet
  facet normal 0 0.891007 0.45399
    outer loop
      vertex 2.5 2.71352 2.38168
      vertex 5.5 2.92658 1.96352
      vertex 2.5 2.92658 1.96352
    endloop
  endfacet
  facet normal 0 0.707107 0.707107
    outer loop
      vertex 23.5 2.71352 2.38168
      vertex 20.5 2.38168 2.71352
      vertex 23.5 2.38168 2.71352
    endloop
  endfacet
  facet normal 0 0.707107 0.707107
    outer loop
      vertex 20.5 2.38168 2.71352
      vertex 23.5 2.71352 2.38168
      vertex 20.5 2.71352 2.38168
    endloop
  endfacet
  facet normal 0 0.707107 0.707107
    outer loop
      vertex 5.5 2.71352 2.38168
      vertex 2.5 2.38168 2.71352
      vertex 5.5 2.38168 2.71352
    endloop
  endfacet
  facet normal 0 0.707107 0.707107
    outer loop
      vertex 2.5 2.38168 2.71352
      vertex 5.5 2.71352 2.38168
      vertex 2.5 2.71352 2.38168
    endloop
  endfacet
  facet normal 0 0.987688 0.156436
    outer loop
      vertex 5.5 3 1.5
      vertex 2.5 2.92658 1.96352
      vertex 5.5 2.92658 1.96352
    endloop
  endfacet
  facet normal 0 0.987688 0.156436
    outer loop
      vertex 2.5 2.92658 1.96352
      vertex 5.5 3 1.5
      vertex 2.5 3 1.5
    endloop
  endfacet
  facet normal 0 0.987688 0.156436
    outer loop
      vertex 23.5 3 1.5
      vertex 20.5 2.92658 1.96352
      vertex 23.5 2.92658 1.96352
    endloop
  endfacet
  facet normal 0 0.987688 0.156436
    outer loop
      vertex 20.5 2.92658 1.96352
      vertex 23.5 3 1.5
      vertex 20.5 3 1.5
    endloop
  endfacet
  facet normal -1 -3.5447e-07 -2.23805e-06
    outer loop
      vertex 2.5 1.03647 0.0734148
      vertex 2.5 0.286474 0.618321
      vertex 2.5 1.5 0
    endloop
  endfacet
  facet normal 0 -0.156433 -0.987688
    outer loop
      vertex 20.5 1.03647 0.0734148
      vertex 23.5 1.5 0
      vertex 23.5 1.03647 0.0734148
    endloop
  endfacet
  facet normal -0 -0.156433 -0.987688
    outer loop
      vertex 23.5 1.5 0
      vertex 20.5 1.03647 0.0734148
      vertex 20.5 1.5 0
    endloop
  endfacet
  facet normal 0 -0.156433 -0.987688
    outer loop
      vertex 2.5 1.03647 0.0734148
      vertex 5.5 1.5 0
      vertex 5.5 1.03647 0.0734148
    endloop
  endfacet
  facet normal -0 -0.156433 -0.987688
    outer loop
      vertex 5.5 1.5 0
      vertex 2.5 1.03647 0.0734148
      vertex 2.5 1.5 0
    endloop
  endfacet
  facet normal 0 -0.707107 0.707107
    outer loop
      vertex 2.5 0.286474 2.38168
      vertex 5.5 0.618321 2.71352
      vertex 2.5 0.618321 2.71352
    endloop
  endfacet
  facet normal 0 -0.707107 0.707107
    outer loop
      vertex 5.5 0.618321 2.71352
      vertex 2.5 0.286474 2.38168
      vertex 5.5 0.286474 2.38168
    endloop
  endfacet
  facet normal 0 -0.707107 0.707107
    outer loop
      vertex 20.5 0.286474 2.38168
      vertex 23.5 0.618321 2.71352
      vertex 20.5 0.618321 2.71352
    endloop
  endfacet
  facet normal 0 -0.707107 0.707107
    outer loop
      vertex 23.5 0.618321 2.71352
      vertex 20.5 0.286474 2.38168
      vertex 23.5 0.286474 2.38168
    endloop
  endfacet
  facet normal 0 0.891007 -0.45399
    outer loop
      vertex 5.5 2.71352 0.618321
      vertex 2.5 2.92658 1.03647
      vertex 5.5 2.92658 1.03647
    endloop
  endfacet
  facet normal 0 0.891007 -0.45399
    outer loop
      vertex 2.5 2.92658 1.03647
      vertex 5.5 2.71352 0.618321
      vertex 2.5 2.71352 0.618321
    endloop
  endfacet
  facet normal 0 0.891007 -0.45399
    outer loop
      vertex 23.5 2.71352 0.618321
      vertex 20.5 2.92658 1.03647
      vertex 23.5 2.92658 1.03647
    endloop
  endfacet
  facet normal 0 0.891007 -0.45399
    outer loop
      vertex 20.5 2.92658 1.03647
      vertex 23.5 2.71352 0.618321
      vertex 20.5 2.71352 0.618321
    endloop
  endfacet
  facet normal -0 0.45399 0.891007
    outer loop
      vertex 2.5 2.38168 2.71352
      vertex 5.5 1.96352 2.92658
      vertex 5.5 2.38168 2.71352
    endloop
  endfacet
  facet normal 0 0.45399 0.891007
    outer loop
      vertex 5.5 1.96352 2.92658
      vertex 2.5 2.38168 2.71352
      vertex 2.5 1.96352 2.92658
    endloop
  endfacet
  facet normal -0 0.45399 0.891007
    outer loop
      vertex 20.5 2.38168 2.71352
      vertex 23.5 1.96352 2.92658
      vertex 23.5 2.38168 2.71352
    endloop
  endfacet
  facet normal 0 0.45399 0.891007
    outer loop
      vertex 23.5 1.96352 2.92658
      vertex 20.5 2.38168 2.71352
      vertex 20.5 1.96352 2.92658
    endloop
  endfacet
  facet normal -1 -2.98546e-06 -5.85929e-06
    outer loop
      vertex 2.5 0.618321 0.286474
      vertex 2.5 0.286474 0.618321
      vertex 2.5 1.03647 0.0734148
    endloop
  endfacet
  facet normal -1 3.5447e-07 -2.23805e-06
    outer loop
      vertex 2.5 1.5 0
      vertex 2.5 2.71352 0.618321
      vertex 2.5 1.96352 0.0734148
    endloop
  endfacet
  facet normal 1 0 0
    outer loop
      vertex 23.5 2.92658 1.96352
      vertex 23.5 2.92658 1.03647
      vertex 23.5 3 1.5
    endloop
  endfacet
  facet normal 1 0 0
    outer loop
      vertex 23.5 2.71352 2.38168
      vertex 23.5 2.92658 1.03647
      vertex 23.5 2.92658 1.96352
    endloop
  endfacet
  facet normal 1 0 0
    outer loop
      vertex 23.5 2.71352 2.38168
      vertex 23.5 2.71352 0.618321
      vertex 23.5 2.92658 1.03647
    endloop
  endfacet
  facet normal 1 0 0
    outer loop
      vertex 23.5 2.38168 2.71352
      vertex 23.5 2.71352 0.618321
      vertex 23.5 2.71352 2.38168
    endloop
  endfacet
  facet normal 1 0 0
    outer loop
      vertex 23.5 2.38168 2.71352
      vertex 23.5 2.38168 0.286474
      vertex 23.5 2.71352 0.618321
    endloop
  endfacet
  facet normal 1 0 0
    outer loop
      vertex 23.5 1.96352 2.92658
      vertex 23.5 2.38168 0.286474
      vertex 23.5 2.38168 2.71352
    endloop
  endfacet
  facet normal 1 0 0
    outer loop
      vertex 23.5 1.96352 2.92658
      vertex 23.5 1.96352 0.0734148
      vertex 23.5 2.38168 0.286474
    endloop
  endfacet
  facet normal 1 0 0
    outer loop
      vertex 23.5 1.5 3
      vertex 23.5 1.96352 0.0734148
      vertex 23.5 1.96352 2.92658
    endloop
  endfacet
  facet normal 1 0 0
    outer loop
      vertex 23.5 1.5 3
      vertex 23.5 1.5 0
      vertex 23.5 1.96352 0.0734148
    endloop
  endfacet
  facet normal 1 -0 0
    outer loop
      vertex 23.5 1.03647 2.92658
      vertex 23.5 1.5 0
      vertex 23.5 1.5 3
    endloop
  endfacet
  facet normal 1 0 0
    outer loop
      vertex 23.5 1.03647 2.92658
      vertex 23.5 1.03647 0.0734148
      vertex 23.5 1.5 0
    endloop
  endfacet
  facet normal 1 -0 0
    outer loop
      vertex 23.5 0.618321 2.71352
      vertex 23.5 1.03647 0.0734148
      vertex 23.5 1.03647 2.92658
    endloop
  endfacet
  facet normal 1 0 0
    outer loop
      vertex 23.5 0.618321 2.71352
      vertex 23.5 0.618321 0.286474
      vertex 23.5 1.03647 0.0734148
    endloop
  endfacet
  facet normal 1 -0 0
    outer loop
      vertex 23.5 0.286474 2.38168
      vertex 23.5 0.618321 0.286474
      vertex 23.5 0.618321 2.71352
    endloop
  endfacet
  facet normal 1 0 0
    outer loop
      vertex 23.5 0.286474 2.38168
      vertex 23.5 0.286474 0.618321
      vertex 23.5 0.618321 0.286474
    endloop
  endfacet
  facet normal 1 -0 0
    outer loop
      vertex 23.5 0.0734148 1.96352
      vertex 23.5 0.286474 0.618321
      vertex 23.5 0.286474 2.38168
    endloop
  endfacet
  facet normal 1 0 0
    outer loop
      vertex 23.5 0.0734148 1.96352
      vertex 23.5 0.0734148 1.03647
      vertex 23.5 0.286474 0.618321
    endloop
  endfacet
  facet normal 1 0 -0
    outer loop
      vertex 23.5 0.0734148 1.03647
      vertex 23.5 0.0734148 1.96352
      vertex 23.5 0 1.5
    endloop
  endfacet
  facet normal 0 -0.707107 -0.707107
    outer loop
      vertex 2.5 0.618321 0.286474
      vertex 5.5 0.286474 0.618321
      vertex 2.5 0.286474 0.618321
    endloop
  endfacet
  facet normal 0 -0.707107 -0.707107
    outer loop
      vertex 5.5 0.286474 0.618321
      vertex 2.5 0.618321 0.286474
      vertex 5.5 0.618321 0.286474
    endloop
  endfacet
  facet normal 0 -0.707107 -0.707107
    outer loop
      vertex 20.5 0.618321 0.286474
      vertex 23.5 0.286474 0.618321
      vertex 20.5 0.286474 0.618321
    endloop
  endfacet
  facet normal 0 -0.707107 -0.707107
    outer loop
      vertex 23.5 0.286474 0.618321
      vertex 20.5 0.618321 0.286474
      vertex 23.5 0.618321 0.286474
    endloop
  endfacet
  facet normal 0 -0.45399 -0.891007
    outer loop
      vertex 2.5 0.618321 0.286474
      vertex 5.5 1.03647 0.0734148
      vertex 5.5 0.618321 0.286474
    endloop
  endfacet
  facet normal -0 -0.45399 -0.891007
    outer loop
      vertex 5.5 1.03647 0.0734148
      vertex 2.5 0.618321 0.286474
      vertex 2.5 1.03647 0.0734148
    endloop
  endfacet
  facet normal 0 -0.45399 -0.891007
    outer loop
      vertex 20.5 0.618321 0.286474
      vertex 23.5 1.03647 0.0734148
      vertex 23.5 0.618321 0.286474
    endloop
  endfacet
  facet normal -0 -0.45399 -0.891007
    outer loop
      vertex 23.5 1.03647 0.0734148
      vertex 20.5 0.618321 0.286474
      vertex 20.5 1.03647 0.0734148
    endloop
  endfacet
  facet normal 0 -0.987688 0.156434
    outer loop
      vertex 20.5 0 1.5
      vertex 23.5 0.0734148 1.96352
      vertex 20.5 0.0734148 1.96352
    endloop
  endfacet
  facet normal 0 -0.987688 0.156434
    outer loop
      vertex 23.5 0.0734148 1.96352
      vertex 20.5 0 1.5
      vertex 23.5 0 1.5
    endloop
  endfacet
  facet normal 0 -0.987688 0.156434
    outer loop
      vertex 2.5 0 1.5
      vertex 5.5 0.0734148 1.96352
      vertex 2.5 0.0734148 1.96352
    endloop
  endfacet
  facet normal 0 -0.987688 0.156434
    outer loop
      vertex 5.5 0.0734148 1.96352
      vertex 2.5 0 1.5
      vertex 5.5 0 1.5
    endloop
  endfacet
  facet normal -1 0 0
    outer loop
      vertex 2.5 2.92658 1.03647
      vertex 2.5 2.92658 1.96352
      vertex 2.5 3 1.5
    endloop
  endfacet
  facet normal -1 0 0
    outer loop
      vertex 2.5 2.71352 0.618321
      vertex 2.5 2.92658 1.96352
      vertex 2.5 2.92658 1.03647
    endloop
  endfacet
  facet normal -1 0 0
    outer loop
      vertex 2.5 2.71352 0.618321
      vertex 2.5 2.71352 2.38168
      vertex 2.5 2.92658 1.96352
    endloop
  endfacet
  facet normal -1 0 0
    outer loop
      vertex 2.5 2.71352 0.618321
      vertex 2.5 2.38168 2.71352
      vertex 2.5 2.71352 2.38168
    endloop
  endfacet
  facet normal -1 0 0
    outer loop
      vertex 2.5 2.71352 0.618321
      vertex 2.5 1.96352 2.92658
      vertex 2.5 2.38168 2.71352
    endloop
  endfacet
  facet normal -1 0 0
    outer loop
      vertex 2.5 2.71352 0.618321
      vertex 2.5 1.5 3
      vertex 2.5 1.96352 2.92658
    endloop
  endfacet
  facet normal -1 0 0
    outer loop
      vertex 2.5 2.71352 0.618321
      vertex 2.5 1.03647 2.92658
      vertex 2.5 1.5 3
    endloop
  endfacet
  facet normal -1 0 0
    outer loop
      vertex 2.5 2.71352 0.618321
      vertex 2.5 0.618321 2.71352
      vertex 2.5 1.03647 2.92658
    endloop
  endfacet
  facet normal -1 0 0
    outer loop
      vertex 2.5 0.286474 0.618321
      vertex 2.5 0.618321 2.71352
      vertex 2.5 2.71352 0.618321
    endloop
  endfacet
  facet normal -1 0 0
    outer loop
      vertex 2.5 0.286474 0.618321
      vertex 2.5 0.286474 2.38168
      vertex 2.5 0.618321 2.71352
    endloop
  endfacet
  facet normal -1 0 0
    outer loop
      vertex 2.5 0.0734148 1.03647
      vertex 2.5 0.286474 2.38168
      vertex 2.5 0.286474 0.618321
    endloop
  endfacet
  facet normal -1 0 0
    outer loop
      vertex 2.5 0.0734148 1.03647
      vertex 2.5 0.0734148 1.96352
      vertex 2.5 0.286474 2.38168
    endloop
  endfacet
  facet normal -1 0 -0
    outer loop
      vertex 2.5 0.0734148 1.96352
      vertex 2.5 0.0734148 1.03647
      vertex 2.5 0 1.5
    endloop
  endfacet
  facet normal 0 -0.891007 0.45399
    outer loop
      vertex 2.5 0.0734148 1.96352
      vertex 5.5 0.286474 2.38168
      vertex 2.5 0.286474 2.38168
    endloop
  endfacet
  facet normal 0 -0.891007 0.45399
    outer loop
      vertex 5.5 0.286474 2.38168
      vertex 2.5 0.0734148 1.96352
      vertex 5.5 0.0734148 1.96352
    endloop
  endfacet
  facet normal 0 -0.891007 0.45399
    outer loop
      vertex 20.5 0.0734148 1.96352
      vertex 23.5 0.286474 2.38168
      vertex 20.5 0.286474 2.38168
    endloop
  endfacet
  facet normal 0 -0.891007 0.45399
    outer loop
      vertex 23.5 0.286474 2.38168
      vertex 20.5 0.0734148 1.96352
      vertex 23.5 0.0734148 1.96352
    endloop
  endfacet
  facet normal 0 -0.45399 0.891007
    outer loop
      vertex 20.5 1.03647 2.92658
      vertex 23.5 0.618321 2.71352
      vertex 23.5 1.03647 2.92658
    endloop
  endfacet
  facet normal 0 -0.45399 0.891007
    outer loop
      vertex 23.5 0.618321 2.71352
      vertex 20.5 1.03647 2.92658
      vertex 20.5 0.618321 2.71352
    endloop
  endfacet
  facet normal 0 -0.45399 0.891007
    outer loop
      vertex 2.5 1.03647 2.92658
      vertex 5.5 0.618321 2.71352
      vertex 5.5 1.03647 2.92658
    endloop
  endfacet
  facet normal 0 -0.45399 0.891007
    outer loop
      vertex 5.5 0.618321 2.71352
      vertex 2.5 1.03647 2.92658
      vertex 2.5 0.618321 2.71352
    endloop
  endfacet
  facet normal 0 -0.156435 0.987688
    outer loop
      vertex 2.5 1.5 3
      vertex 5.5 1.03647 2.92658
      vertex 5.5 1.5 3
    endloop
  endfacet
  facet normal 0 -0.156435 0.987688
    outer loop
      vertex 5.5 1.03647 2.92658
      vertex 2.5 1.5 3
      vertex 2.5 1.03647 2.92658
    endloop
  endfacet
  facet normal 0 -0.156435 0.987688
    outer loop
      vertex 20.5 1.5 3
      vertex 23.5 1.03647 2.92658
      vertex 23.5 1.5 3
    endloop
  endfacet
  facet normal 0 -0.156435 0.987688
    outer loop
      vertex 23.5 1.03647 2.92658
      vertex 20.5 1.5 3
      vertex 20.5 1.03647 2.92658
    endloop
  endfacet
  facet normal -1 0 0
    outer loop
      vertex 2 31 0
      vertex 2 22 5
      vertex 2 31 5
    endloop
  endfacet
  facet normal -1 0 0
    outer loop
      vertex 2 19.6643 16.2092
      vertex 2 22 20
      vertex 2 22 5
    endloop
  endfacet
  facet normal -1 0 0
    outer loop
      vertex 2 22 20
      vertex 2 19.6643 16.2092
      vertex 2 19.75 16.75
    endloop
  endfacet
  facet normal -1 0 0
    outer loop
      vertex 2 22 5
      vertex 2 19.4158 15.7214
      vertex 2 19.6643 16.2092
    endloop
  endfacet
  facet normal -1 0 0
    outer loop
      vertex 2 22 5
      vertex 2 19.0286 15.3342
      vertex 2 19.4158 15.7214
    endloop
  endfacet
  facet normal -1 0 0
    outer loop
      vertex 2 22 5
      vertex 2 18.5408 15.0857
      vertex 2 19.0286 15.3342
    endloop
  endfacet
  facet normal -1 0 0
    outer loop
      vertex 2 22 5
      vertex 2 18 15
      vertex 2 18.5408 15.0857
    endloop
  endfacet
  facet normal -1 0 0
    outer loop
      vertex 2 22 5
      vertex 2 17.4592 15.0857
      vertex 2 18 15
    endloop
  endfacet
  facet normal -1 0 0
    outer loop
      vertex 2 14 0
      vertex 2 17.4592 15.0857
      vertex 2 22 5
    endloop
  endfacet
  facet normal -1 -0 0
    outer loop
      vertex 2 17.4592 15.0857
      vertex 2 14 0
      vertex 2 16.9714 15.3342
    endloop
  endfacet
  facet normal -1 -0 0
    outer loop
      vertex 2 16.9714 15.3342
      vertex 2 14 0
      vertex 2 16.5842 15.7214
    endloop
  endfacet
  facet normal -1 0 0
    outer loop
      vertex 2 14 20
      vertex 2 16.3357 16.2092
      vertex 2 14 0
    endloop
  endfacet
  facet normal -1 -0 0
    outer loop
      vertex 2 16.5842 15.7214
      vertex 2 14 0
      vertex 2 16.3357 16.2092
    endloop
  endfacet
  facet normal -1 0 0
    outer loop
      vertex 2 14 0
      vertex 2 22 5
      vertex 2 31 0
    endloop
  endfacet
  facet normal -1 0 0
    outer loop
      vertex 2 19.6643 17.2908
      vertex 2 22 20
      vertex 2 19.75 16.75
    endloop
  endfacet
  facet normal -1 0 0
    outer loop
      vertex 2 19.4158 17.7786
      vertex 2 22 20
      vertex 2 19.6643 17.2908
    endloop
  endfacet
  facet normal -1 0 0
    outer loop
      vertex 2 19.0286 18.1658
      vertex 2 22 20
      vertex 2 19.4158 17.7786
    endloop
  endfacet
  facet normal -1 0 0
    outer loop
      vertex 2 18.5408 18.4143
      vertex 2 22 20
      vertex 2 19.0286 18.1658
    endloop
  endfacet
  facet normal -1 0 0
    outer loop
      vertex 2 18 18.5
      vertex 2 22 20
      vertex 2 18.5408 18.4143
    endloop
  endfacet
  facet normal -1 0 0
    outer loop
      vertex 2 14 20
      vertex 2 18 18.5
      vertex 2 17.4592 18.4143
    endloop
  endfacet
  facet normal -1 0 0
    outer loop
      vertex 2 18 18.5
      vertex 2 14 20
      vertex 2 22 20
    endloop
  endfacet
  facet normal -1 0 0
    outer loop
      vertex 2 16.9714 18.1658
      vertex 2 14 20
      vertex 2 17.4592 18.4143
    endloop
  endfacet
  facet normal -1 0 0
    outer loop
      vertex 2 16.5842 17.7786
      vertex 2 14 20
      vertex 2 16.9714 18.1658
    endloop
  endfacet
  facet normal -1 0 0
    outer loop
      vertex 2 16.3357 17.2908
      vertex 2 14 20
      vertex 2 16.5842 17.7786
    endloop
  endfacet
  facet normal -1 0 0
    outer loop
      vertex 2 16.25 16.75
      vertex 2 14 20
      vertex 2 16.3357 17.2908
    endloop
  endfacet
  facet normal -1 0 0
    outer loop
      vertex 2 16.3357 16.2092
      vertex 2 14 20
      vertex 2 16.25 16.75
    endloop
  endfacet
  facet normal -0 0 1
    outer loop
      vertex 2 22 20
      vertex 5 16 20
      vertex 5 22 20
    endloop
  endfacet
  facet normal 0 0 1
    outer loop
      vertex 2 14 20
      vertex 5 16 20
      vertex 2 22 20
    endloop
  endfacet
  facet normal 0 0 1
    outer loop
      vertex 5 16 20
      vertex 2 14 20
      vertex 5 15 20
    endloop
  endfacet
  facet normal 0 0 1
    outer loop
      vertex 5 15 20
      vertex 2 14 20
      vertex 5 14 20
    endloop
  endfacet
  facet normal -0 0 1
    outer loop
      vertex 5 16 20
      vertex 6 15 20
      vertex 6 16 20
    endloop
  endfacet
  facet normal 0 0 1
    outer loop
      vertex 6 15 20
      vertex 5 16 20
      vertex 5 15 20
    endloop
  endfacet
  facet normal 1 -0 0
    outer loop
      vertex 5 14 20
      vertex 5 15 19
      vertex 5 15 20
    endloop
  endfacet
  facet normal 1 0 0
    outer loop
      vertex 5 15 19
      vertex 5 14 20
      vertex 5 15 5
    endloop
  endfacet
  facet normal 1 0 0
    outer loop
      vertex 5 14 0
      vertex 5 15 5
      vertex 5 14 20
    endloop
  endfacet
  facet normal 1 0 0
    outer loop
      vertex 5 15 5
      vertex 5 14 0
      vertex 5 15 0
    endloop
  endfacet
  facet normal 1 0 0
    outer loop
      vertex 5 19.6643 16.2092
      vertex 5 22 20
      vertex 5 19.75 16.75
    endloop
  endfacet
  facet normal 1 0 0
    outer loop
      vertex 5 22 20
      vertex 5 19.6643 17.2908
      vertex 5 19.75 16.75
    endloop
  endfacet
  facet normal 1 0 0
    outer loop
      vertex 5 22 20
      vertex 5 19.4158 17.7786
      vertex 5 19.6643 17.2908
    endloop
  endfacet
  facet normal 1 0 0
    outer loop
      vertex 5 22 20
      vertex 5 19.0286 18.1658
      vertex 5 19.4158 17.7786
    endloop
  endfacet
  facet normal 1 0 0
    outer loop
      vertex 5 22 20
      vertex 5 18.5408 18.4143
      vertex 5 19.0286 18.1658
    endloop
  endfacet
  facet normal 1 -0 0
    outer loop
      vertex 5 16 20
      vertex 5 18.5408 18.4143
      vertex 5 22 20
    endloop
  endfacet
  facet normal 1 0 0
    outer loop
      vertex 5 18.5408 18.4143
      vertex 5 16 20
      vertex 5 18 18.5
    endloop
  endfacet
  facet normal 1 0 0
    outer loop
      vertex 5 16.5842 17.7786
      vertex 5 16 19
      vertex 5 16.3357 17.2908
    endloop
  endfacet
  facet normal 1 0 0
    outer loop
      vertex 5 16.9714 18.1658
      vertex 5 16 19
      vertex 5 16.5842 17.7786
    endloop
  endfacet
  facet normal 1 0 0
    outer loop
      vertex 5 17.4592 18.4143
      vertex 5 16 19
      vertex 5 16.9714 18.1658
    endloop
  endfacet
  facet normal 1 -0 0
    outer loop
      vertex 5 16 19
      vertex 5 17.4592 18.4143
      vertex 5 16 20
    endloop
  endfacet
  facet normal 1 0 0
    outer loop
      vertex 5 18 18.5
      vertex 5 16 20
      vertex 5 17.4592 18.4143
    endloop
  endfacet
  facet normal 1 0 0
    outer loop
      vertex 5 22 20
      vertex 5 19.6643 16.2092
      vertex 5 22 5
    endloop
  endfacet
  facet normal 1 -0 0
    outer loop
      vertex 5 19.4158 15.7214
      vertex 5 22 5
      vertex 5 19.6643 16.2092
    endloop
  endfacet
  facet normal 1 -0 0
    outer loop
      vertex 5 19.0286 15.3342
      vertex 5 22 5
      vertex 5 19.4158 15.7214
    endloop
  endfacet
  facet normal 1 -0 0
    outer loop
      vertex 5 18.5408 15.0857
      vertex 5 22 5
      vertex 5 19.0286 15.3342
    endloop
  endfacet
  facet normal 1 -0 0
    outer loop
      vertex 5 18 15
      vertex 5 22 5
      vertex 5 18.5408 15.0857
    endloop
  endfacet
  facet normal 1 0 0
    outer loop
      vertex 5 15 5
      vertex 5 18 15
      vertex 5 17.4592 15.0857
    endloop
  endfacet
  facet normal 1 0 0
    outer loop
      vertex 5 15 5
      vertex 5 17.4592 15.0857
      vertex 5 16.9714 15.3342
    endloop
  endfacet
  facet normal 1 0 0
    outer loop
      vertex 5 15 5
      vertex 5 16.9714 15.3342
      vertex 5 16.5842 15.7214
    endloop
  endfacet
  facet normal 1 0 0
    outer loop
      vertex 5 15 5
      vertex 5 16.5842 15.7214
      vertex 5 16.3357 16.2092
    endloop
  endfacet
  facet normal 1 -0 0
    outer loop
      vertex 5 15 19
      vertex 5 16.3357 17.2908
      vertex 5 16 19
    endloop
  endfacet
  facet normal 1 0 0
    outer loop
      vertex 5 16.3357 17.2908
      vertex 5 15 19
      vertex 5 16.25 16.75
    endloop
  endfacet
  facet normal 1 0 0
    outer loop
      vertex 5 15 19
      vertex 5 16.3357 16.2092
      vertex 5 16.25 16.75
    endloop
  endfacet
  facet normal 1 0 0
    outer loop
      vertex 5 18 15
      vertex 5 15 5
      vertex 5 22 5
    endloop
  endfacet
  facet normal 1 0 0
    outer loop
      vertex 5 15 5
      vertex 5 16.3357 16.2092
      vertex 5 15 19
    endloop
  endfacet
  facet normal 0 1 -0
    outer loop
      vertex 5 22 5
      vertex 2 22 20
      vertex 5 22 20
    endloop
  endfacet
  facet normal 0 1 0
    outer loop
      vertex 2 22 20
      vertex 5 22 5
      vertex 2 22 5
    endloop
  endfacet
  facet normal 0 0 -1
    outer loop
      vertex 5 14 0
      vertex 2 14 0
      vertex 5 15 0
    endloop
  endfacet
  facet normal 0 0 -1
    outer loop
      vertex 21 15 0
      vertex 6 16 0
      vertex 20 16 0
    endloop
  endfacet
  facet normal 0 0 -1
    outer loop
      vertex 2 14 0
      vertex 6 16 0
      vertex 5 15 0
    endloop
  endfacet
  facet normal 0 0 -1
    outer loop
      vertex 5 15 0
      vertex 6 16 0
      vertex 21 15 0
    endloop
  endfacet
  facet normal 0 0 -1
    outer loop
      vertex 21 15 0
      vertex 24 14 0
      vertex 21 14 0
    endloop
  endfacet
  facet normal 0 0 -1
    outer loop
      vertex 20 16 0
      vertex 24 14 0
      vertex 21 15 0
    endloop
  endfacet
  facet normal 0 0 -1
    outer loop
      vertex 24 14 0
      vertex 20 16 0
      vertex 24 31 0
    endloop
  endfacet
  facet normal 0 0 -1
    outer loop
      vertex 20 30 0
      vertex 24 31 0
      vertex 20 16 0
    endloop
  endfacet
  facet normal 0 0 -1
    outer loop
      vertex 6 30 0
      vertex 24 31 0
      vertex 20 30 0
    endloop
  endfacet
  facet normal -0 0 -1
    outer loop
      vertex 6 16 0
      vertex 2 14 0
      vertex 2 31 0
    endloop
  endfacet
  facet normal 0 0 -1
    outer loop
      vertex 6 30 0
      vertex 2 31 0
      vertex 24 31 0
    endloop
  endfacet
  facet normal 0 0 -1
    outer loop
      vertex 6 16 0
      vertex 2 31 0
      vertex 6 30 0
    endloop
  endfacet
  facet normal 0 -1 0
    outer loop
      vertex 2 14 0
      vertex 5 14 20
      vertex 2 14 20
    endloop
  endfacet
  facet normal 0 -1 -0
    outer loop
      vertex 5 14 20
      vertex 2 14 0
      vertex 5 14 0
    endloop
  endfacet
  facet normal 0 1 0
    outer loop
      vertex 24 31 5
      vertex 15 31 1
      vertex 15 31 5
    endloop
  endfacet
  facet normal 0 1 0
    outer loop
      vertex 15 31 1
      vertex 24 31 0
      vertex 11 31 1
    endloop
  endfacet
  facet normal 0 1 -0
    outer loop
      vertex 24 31 0
      vertex 15 31 1
      vertex 24 31 5
    endloop
  endfacet
  facet normal 0 1 -0
    outer loop
      vertex 11 31 1
      vertex 2 31 5
      vertex 11 31 5
    endloop
  endfacet
  facet normal 0 1 0
    outer loop
      vertex 11 31 1
      vertex 2 31 0
      vertex 2 31 5
    endloop
  endfacet
  facet normal 0 1 0
    outer loop
      vertex 2 31 0
      vertex 11 31 1
      vertex 24 31 0
    endloop
  endfacet
  facet normal -1 0 0
    outer loop
      vertex 21 14 0
      vertex 21 15 5
      vertex 21 15 0
    endloop
  endfacet
  facet normal -1 0 0
    outer loop
      vertex 21 14 20
      vertex 21 15 5
      vertex 21 14 0
    endloop
  endfacet
  facet normal -1 0 0
    outer loop
      vertex 21 15 5
      vertex 21 14 20
      vertex 21 15 19
    endloop
  endfacet
  facet normal -1 0 0
    outer loop
      vertex 21 15 19
      vertex 21 14 20
      vertex 21 15 20
    endloop
  endfacet
  facet normal -1 0 0
    outer loop
      vertex 21 19.6643 16.2092
      vertex 21 22 20
      vertex 21 22 5
    endloop
  endfacet
  facet normal -1 0 0
    outer loop
      vertex 21 22 20
      vertex 21 19.6643 16.2092
      vertex 21 19.75 16.75
    endloop
  endfacet
  facet normal -1 0 0
    outer loop
      vertex 21 22 5
      vertex 21 19.4158 15.7214
      vertex 21 19.6643 16.2092
    endloop
  endfacet
  facet normal -1 0 0
    outer loop
      vertex 21 22 5
      vertex 21 19.0286 15.3342
      vertex 21 19.4158 15.7214
    endloop
  endfacet
  facet normal -1 0 0
    outer loop
      vertex 21 22 5
      vertex 21 18.5408 15.0857
      vertex 21 19.0286 15.3342
    endloop
  endfacet
  facet normal -1 0 0
    outer loop
      vertex 21 22 5
      vertex 21 18 15
      vertex 21 18.5408 15.0857
    endloop
  endfacet
  facet normal -1 0 0
    outer loop
      vertex 21 15 5
      vertex 21 18 15
      vertex 21 22 5
    endloop
  endfacet
  facet normal -1 -0 0
    outer loop
      vertex 21 18 15
      vertex 21 15 5
      vertex 21 17.4592 15.0857
    endloop
  endfacet
  facet normal -1 -0 0
    outer loop
      vertex 21 17.4592 15.0857
      vertex 21 15 5
      vertex 21 16.9714 15.3342
    endloop
  endfacet
  facet normal -1 -0 0
    outer loop
      vertex 21 16.9714 15.3342
      vertex 21 15 5
      vertex 21 16.5842 15.7214
    endloop
  endfacet
  facet normal -1 -0 0
    outer loop
      vertex 21 16.5842 15.7214
      vertex 21 15 5
      vertex 21 16.3357 16.2092
    endloop
  endfacet
  facet normal -1 0 0
    outer loop
      vertex 21 15 19
      vertex 21 16.3357 16.2092
      vertex 21 15 5
    endloop
  endfacet
  facet normal -1 0 0
    outer loop
      vertex 21 16.3357 16.2092
      vertex 21 15 19
      vertex 21 16.25 16.75
    endloop
  endfacet
  facet normal -1 0 0
    outer loop
      vertex 21 16.25 16.75
      vertex 21 15 19
      vertex 21 16 19
    endloop
  endfacet
  facet normal -1 0 0
    outer loop
      vertex 21 19.6643 17.2908
      vertex 21 22 20
      vertex 21 19.75 16.75
    endloop
  endfacet
  facet normal -1 0 0
    outer loop
      vertex 21 19.4158 17.7786
      vertex 21 22 20
      vertex 21 19.6643 17.2908
    endloop
  endfacet
  facet normal -1 0 0
    outer loop
      vertex 21 19.0286 18.1658
      vertex 21 22 20
      vertex 21 19.4158 17.7786
    endloop
  endfacet
  facet normal -1 0 0
    outer loop
      vertex 21 18.5408 18.4143
      vertex 21 22 20
      vertex 21 19.0286 18.1658
    endloop
  endfacet
  facet normal -1 0 0
    outer loop
      vertex 21 16 20
      vertex 21 18.5408 18.4143
      vertex 21 18 18.5
    endloop
  endfacet
  facet normal -1 0 0
    outer loop
      vertex 21 16 20
      vertex 21 18 18.5
      vertex 21 17.4592 18.4143
    endloop
  endfacet
  facet normal -1 0 0
    outer loop
      vertex 21 16 19
      vertex 21 16.3357 17.2908
      vertex 21 16.25 16.75
    endloop
  endfacet
  facet normal -1 0 0
    outer loop
      vertex 21 16 19
      vertex 21 16.5842 17.7786
      vertex 21 16.3357 17.2908
    endloop
  endfacet
  facet normal -1 0 0
    outer loop
      vertex 21 16 19
      vertex 21 16.9714 18.1658
      vertex 21 16.5842 17.7786
    endloop
  endfacet
  facet normal -1 0 0
    outer loop
      vertex 21 16 19
      vertex 21 17.4592 18.4143
      vertex 21 16.9714 18.1658
    endloop
  endfacet
  facet normal -1 0 0
    outer loop
      vertex 21 16 20
      vertex 21 17.4592 18.4143
      vertex 21 16 19
    endloop
  endfacet
  facet normal -1 0 0
    outer loop
      vertex 21 18.5408 18.4143
      vertex 21 16 20
      vertex 21 22 20
    endloop
  endfacet
  facet normal -0 0 1
    outer loop
      vertex 20 16 20
      vertex 21 15 20
      vertex 21 16 20
    endloop
  endfacet
  facet normal 0 0 1
    outer loop
      vertex 21 15 20
      vertex 20 16 20
      vertex 20 15 20
    endloop
  endfacet
  facet normal 0 0 1
    outer loop
      vertex 21 16 20
      vertex 24 22 20
      vertex 21 22 20
    endloop
  endfacet
  facet normal 0 0 1
    outer loop
      vertex 24 22 20
      vertex 21 16 20
      vertex 24 14 20
    endloop
  endfacet
  facet normal -0 0 1
    outer loop
      vertex 21 15 20
      vertex 24 14 20
      vertex 21 16 20
    endloop
  endfacet
  facet normal 0 0 1
    outer loop
      vertex 24 14 20
      vertex 21 15 20
      vertex 21 14 20
    endloop
  endfacet
  facet normal 1 0 0
    outer loop
      vertex 24 19.6643 16.2092
      vertex 24 22 20
      vertex 24 19.75 16.75
    endloop
  endfacet
  facet normal 1 0 0
    outer loop
      vertex 24 22 20
      vertex 24 19.6643 17.2908
      vertex 24 19.75 16.75
    endloop
  endfacet
  facet normal 1 0 0
    outer loop
      vertex 24 22 20
      vertex 24 19.4158 17.7786
      vertex 24 19.6643 17.2908
    endloop
  endfacet
  facet normal 1 0 0
    outer loop
      vertex 24 22 20
      vertex 24 19.0286 18.1658
      vertex 24 19.4158 17.7786
    endloop
  endfacet
  facet normal 1 0 0
    outer loop
      vertex 24 22 20
      vertex 24 18.5408 18.4143
      vertex 24 19.0286 18.1658
    endloop
  endfacet
  facet normal 1 0 0
    outer loop
      vertex 24 22 20
      vertex 24 18 18.5
      vertex 24 18.5408 18.4143
    endloop
  endfacet
  facet normal 1 -0 0
    outer loop
      vertex 24 14 20
      vertex 24 18 18.5
      vertex 24 22 20
    endloop
  endfacet
  facet normal 1 0 0
    outer loop
      vertex 24 16.3357 17.2908
      vertex 24 14 20
      vertex 24 16.25 16.75
    endloop
  endfacet
  facet normal 1 0 0
    outer loop
      vertex 24 16.5842 17.7786
      vertex 24 14 20
      vertex 24 16.3357 17.2908
    endloop
  endfacet
  facet normal 1 0 0
    outer loop
      vertex 24 16.9714 18.1658
      vertex 24 14 20
      vertex 24 16.5842 17.7786
    endloop
  endfacet
  facet normal 1 0 0
    outer loop
      vertex 24 17.4592 18.4143
      vertex 24 14 20
      vertex 24 16.9714 18.1658
    endloop
  endfacet
  facet normal 1 0 0
    outer loop
      vertex 24 18 18.5
      vertex 24 14 20
      vertex 24 17.4592 18.4143
    endloop
  endfacet
  facet normal 1 -0 0
    outer loop
      vertex 24 22 5
      vertex 24 31 0
      vertex 24 31 5
    endloop
  endfacet
  facet normal 1 0 0
    outer loop
      vertex 24 22 20
      vertex 24 19.6643 16.2092
      vertex 24 22 5
    endloop
  endfacet
  facet normal 1 -0 0
    outer loop
      vertex 24 19.4158 15.7214
      vertex 24 22 5
      vertex 24 19.6643 16.2092
    endloop
  endfacet
  facet normal 1 -0 0
    outer loop
      vertex 24 19.0286 15.3342
      vertex 24 22 5
      vertex 24 19.4158 15.7214
    endloop
  endfacet
  facet normal 1 -0 0
    outer loop
      vertex 24 18.5408 15.0857
      vertex 24 22 5
      vertex 24 19.0286 15.3342
    endloop
  endfacet
  facet normal 1 -0 0
    outer loop
      vertex 24 18 15
      vertex 24 22 5
      vertex 24 18.5408 15.0857
    endloop
  endfacet
  facet normal 1 0 0
    outer loop
      vertex 24 17.4592 15.0857
      vertex 24 22 5
      vertex 24 18 15
    endloop
  endfacet
  facet normal 1 0 0
    outer loop
      vertex 24 14 0
      vertex 24 17.4592 15.0857
      vertex 24 16.9714 15.3342
    endloop
  endfacet
  facet normal 1 0 0
    outer loop
      vertex 24 14 0
      vertex 24 16.9714 15.3342
      vertex 24 16.5842 15.7214
    endloop
  endfacet
  facet normal 1 0 0
    outer loop
      vertex 24 14 0
      vertex 24 16.5842 15.7214
      vertex 24 16.3357 16.2092
    endloop
  endfacet
  facet normal 1 0 0
    outer loop
      vertex 24 14 20
      vertex 24 16.3357 16.2092
      vertex 24 16.25 16.75
    endloop
  endfacet
  facet normal 1 0 0
    outer loop
      vertex 24 14 0
      vertex 24 16.3357 16.2092
      vertex 24 14 20
    endloop
  endfacet
  facet normal 1 0 0
    outer loop
      vertex 24 22 5
      vertex 24 14 0
      vertex 24 31 0
    endloop
  endfacet
  facet normal 1 0 0
    outer loop
      vertex 24 17.4592 15.0857
      vertex 24 14 0
      vertex 24 22 5
    endloop
  endfacet
  facet normal 0 1 -0
    outer loop
      vertex 24 22 5
      vertex 21 22 20
      vertex 24 22 20
    endloop
  endfacet
  facet normal 0 1 0
    outer loop
      vertex 21 22 20
      vertex 24 22 5
      vertex 21 22 5
    endloop
  endfacet
  facet normal 0 -1 0
    outer loop
      vertex 21 14 0
      vertex 24 14 20
      vertex 21 14 20
    endloop
  endfacet
  facet normal 0 -1 -0
    outer loop
      vertex 24 14 20
      vertex 21 14 0
      vertex 24 14 0
    endloop
  endfacet
  facet normal 1 -0 0
    outer loop
      vertex 6 16 5
      vertex 6 30 0
      vertex 6 30 5
    endloop
  endfacet
  facet normal 1 0 0
    outer loop
      vertex 6 30 0
      vertex 6 16 5
      vertex 6 16 0
    endloop
  endfacet
  facet normal -1 0 0
    outer loop
      vertex 20 16 0
      vertex 20 30 5
      vertex 20 30 0
    endloop
  endfacet
  facet normal -1 -0 0
    outer loop
      vertex 20 30 5
      vertex 20 16 0
      vertex 20 16 5
    endloop
  endfacet
  facet normal 0 -1 0
    outer loop
      vertex 6 30 5
      vertex 11 30 1
      vertex 11 30 5
    endloop
  endfacet
  facet normal 0 -1 -0
    outer loop
      vertex 11 30 1
      vertex 6 30 0
      vertex 15 30 1
    endloop
  endfacet
  facet normal 0 -1 0
    outer loop
      vertex 6 30 0
      vertex 11 30 1
      vertex 6 30 5
    endloop
  endfacet
  facet normal 0 -1 0
    outer loop
      vertex 15 30 1
      vertex 20 30 5
      vertex 15 30 5
    endloop
  endfacet
  facet normal 0 -1 0
    outer loop
      vertex 15 30 1
      vertex 20 30 0
      vertex 20 30 5
    endloop
  endfacet
  facet normal 0 -1 0
    outer loop
      vertex 20 30 0
      vertex 15 30 1
      vertex 6 30 0
    endloop
  endfacet
  facet normal 0 1 0
    outer loop
      vertex 20 16 5
      vertex 15 16 1
      vertex 15 16 5
    endloop
  endfacet
  facet normal 0 1 0
    outer loop
      vertex 15 16 1
      vertex 20 16 0
      vertex 11 16 1
    endloop
  endfacet
  facet normal 0 1 -0
    outer loop
      vertex 20 16 0
      vertex 15 16 1
      vertex 20 16 5
    endloop
  endfacet
  facet normal 0 1 -0
    outer loop
      vertex 11 16 1
      vertex 6 16 5
      vertex 11 16 5
    endloop
  endfacet
  facet normal 0 1 0
    outer loop
      vertex 11 16 1
      vertex 6 16 0
      vertex 6 16 5
    endloop
  endfacet
  facet normal 0 1 0
    outer loop
      vertex 6 16 0
      vertex 11 16 1
      vertex 20 16 0
    endloop
  endfacet
  facet normal 1 -0 0
    outer loop
      vertex 11 15 5
      vertex 11 16 1
      vertex 11 16 5
    endloop
  endfacet
  facet normal 1 0 0
    outer loop
      vertex 11 16 1
      vertex 11 15 5
      vertex 11 15 1
    endloop
  endfacet
  facet normal 1 -0 0
    outer loop
      vertex 11 30 5
      vertex 11 31 1
      vertex 11 31 5
    endloop
  endfacet
  facet normal 1 0 0
    outer loop
      vertex 11 31 1
      vertex 11 30 5
      vertex 11 30 1
    endloop
  endfacet
  facet normal -0 0 1
    outer loop
      vertex 20 30 5
      vertex 24 22 5
      vertex 24 31 5
    endloop
  endfacet
  facet normal 0 0 1
    outer loop
      vertex 20 16 5
      vertex 21 22 5
      vertex 20 30 5
    endloop
  endfacet
  facet normal 0 0 1
    outer loop
      vertex 24 22 5
      vertex 20 30 5
      vertex 21 22 5
    endloop
  endfacet
  facet normal -0 0 1
    outer loop
      vertex 15 31 5
      vertex 20 30 5
      vertex 24 31 5
    endloop
  endfacet
  facet normal 0 0 1
    outer loop
      vertex 20 30 5
      vertex 15 31 5
      vertex 15 30 5
    endloop
  endfacet
  facet normal 0 0 1
    outer loop
      vertex 21 22 5
      vertex 20 16 5
      vertex 21 15 5
    endloop
  endfacet
  facet normal 0 0 1
    outer loop
      vertex 15 15 5
      vertex 20 16 5
      vertex 15 16 5
    endloop
  endfacet
  facet normal 0 0 1
    outer loop
      vertex 20 16 5
      vertex 15 15 5
      vertex 21 15 5
    endloop
  endfacet
  facet normal 0 0 1
    outer loop
      vertex 11 31 5
      vertex 6 30 5
      vertex 11 30 5
    endloop
  endfacet
  facet normal 0 0 1
    outer loop
      vertex 6 30 5
      vertex 5 22 5
      vertex 6 16 5
    endloop
  endfacet
  facet normal -0 0 1
    outer loop
      vertex 2 31 5
      vertex 6 30 5
      vertex 11 31 5
    endloop
  endfacet
  facet normal 0 0 1
    outer loop
      vertex 2 22 5
      vertex 6 30 5
      vertex 2 31 5
    endloop
  endfacet
  facet normal 0 0 1
    outer loop
      vertex 6 30 5
      vertex 2 22 5
      vertex 5 22 5
    endloop
  endfacet
  facet normal -0 0 1
    outer loop
      vertex 6 16 5
      vertex 11 15 5
      vertex 11 16 5
    endloop
  endfacet
  facet normal 0 0 1
    outer loop
      vertex 6 16 5
      vertex 5 15 5
      vertex 11 15 5
    endloop
  endfacet
  facet normal 0 0 1
    outer loop
      vertex 5 15 5
      vertex 6 16 5
      vertex 5 22 5
    endloop
  endfacet
  facet normal -1 0 0
    outer loop
      vertex 15 15 1
      vertex 15 16 5
      vertex 15 16 1
    endloop
  endfacet
  facet normal -1 -0 0
    outer loop
      vertex 15 16 5
      vertex 15 15 1
      vertex 15 15 5
    endloop
  endfacet
  facet normal -1 0 0
    outer loop
      vertex 15 30 1
      vertex 15 31 5
      vertex 15 31 1
    endloop
  endfacet
  facet normal -1 -0 0
    outer loop
      vertex 15 31 5
      vertex 15 30 1
      vertex 15 30 5
    endloop
  endfacet
  facet normal -0 0 1
    outer loop
      vertex 11 31 1
      vertex 15 30 1
      vertex 15 31 1
    endloop
  endfacet
  facet normal 0 0 1
    outer loop
      vertex 15 30 1
      vertex 11 31 1
      vertex 11 30 1
    endloop
  endfacet
  facet normal -0 0 1
    outer loop
      vertex 11 16 1
      vertex 15 15 1
      vertex 15 16 1
    endloop
  endfacet
  facet normal 0 0 1
    outer loop
      vertex 15 15 1
      vertex 11 16 1
      vertex 11 15 1
    endloop
  endfacet
  facet normal 0 -1 0
    outer loop
      vertex 5 15 5
      vertex 11 15 1
      vertex 11 15 5
    endloop
  endfacet
  facet normal 0 -1 -0
    outer loop
      vertex 11 15 1
      vertex 5 15 0
      vertex 15 15 1
    endloop
  endfacet
  facet normal 0 -1 0
    outer loop
      vertex 5 15 0
      vertex 11 15 1
      vertex 5 15 5
    endloop
  endfacet
  facet normal 0 -1 0
    outer loop
      vertex 15 15 1
      vertex 21 15 5
      vertex 15 15 5
    endloop
  endfacet
  facet normal 0 -1 0
    outer loop
      vertex 15 15 1
      vertex 21 15 0
      vertex 21 15 5
    endloop
  endfacet
  facet normal 0 -1 0
    outer loop
      vertex 21 15 0
      vertex 15 15 1
      vertex 5 15 0
    endloop
  endfacet
  facet normal 1 -0 0
    outer loop
      vertex 6 15 20
      vertex 6 16 19
      vertex 6 16 20
    endloop
  endfacet
  facet normal 1 0 0
    outer loop
      vertex 6 16 19
      vertex 6 15 20
      vertex 6 15 19
    endloop
  endfacet
  facet normal 0 1 -0
    outer loop
      vertex 6 16 19
      vertex 5 16 20
      vertex 6 16 20
    endloop
  endfacet
  facet normal 0 1 0
    outer loop
      vertex 5 16 20
      vertex 6 16 19
      vertex 5 16 19
    endloop
  endfacet
  facet normal 0 0 -1
    outer loop
      vertex 5 15 19
      vertex 6 16 19
      vertex 6 15 19
    endloop
  endfacet
  facet normal -0 0 -1
    outer loop
      vertex 6 16 19
      vertex 5 15 19
      vertex 5 16 19
    endloop
  endfacet
  facet normal 0 -1 0
    outer loop
      vertex 5 15 19
      vertex 6 15 20
      vertex 5 15 20
    endloop
  endfacet
  facet normal 0 -1 -0
    outer loop
      vertex 6 15 20
      vertex 5 15 19
      vertex 6 15 19
    endloop
  endfacet
  facet normal -1 0 0
    outer loop
      vertex 20 15 19
      vertex 20 16 20
      vertex 20 16 19
    endloop
  endfacet
  facet normal -1 -0 0
    outer loop
      vertex 20 16 20
      vertex 20 15 19
      vertex 20 15 20
    endloop
  endfacet
  facet normal 0 0 -1
    outer loop
      vertex 20 15 19
      vertex 21 16 19
      vertex 21 15 19
    endloop
  endfacet
  facet normal -0 0 -1
    outer loop
      vertex 21 16 19
      vertex 20 15 19
      vertex 20 16 19
    endloop
  endfacet
  facet normal 0 -1 0
    outer loop
      vertex 20 15 19
      vertex 21 15 20
      vertex 20 15 20
    endloop
  endfacet
  facet normal 0 -1 -0
    outer loop
      vertex 21 15 20
      vertex 20 15 19
      vertex 21 15 19
    endloop
  endfacet
  facet normal 0 1 -0
    outer loop
      vertex 21 16 19
      vertex 20 16 20
      vertex 21 16 20
    endloop
  endfacet
  facet normal 0 1 0
    outer loop
      vertex 20 16 20
      vertex 21 16 19
      vertex 20 16 19
    endloop
  endfacet
  facet normal 0 -0.156433 0.987688
    outer loop
      vertex 2 18.5408 15.0857
      vertex 5 18 15
      vertex 5 18.5408 15.0857
    endloop
  endfacet
  facet normal 0 -0.156433 0.987688
    outer loop
      vertex 5 18 15
      vertex 2 18.5408 15.0857
      vertex 2 18 15
    endloop
  endfacet
  facet normal 0 -0.156433 0.987688
    outer loop
      vertex 21 18.5408 15.0857
      vertex 24 18 15
      vertex 24 18.5408 15.0857
    endloop
  endfacet
  facet normal 0 -0.156433 0.987688
    outer loop
      vertex 24 18 15
      vertex 21 18.5408 15.0857
      vertex 21 18 15
    endloop
  endfacet
  facet normal 0 -0.156435 -0.987688
    outer loop
      vertex 2 18 18.5
      vertex 5 18.5408 18.4143
      vertex 5 18 18.5
    endloop
  endfacet
  facet normal -0 -0.156435 -0.987688
    outer loop
      vertex 5 18.5408 18.4143
      vertex 2 18 18.5
      vertex 2 18.5408 18.4143
    endloop
  endfacet
  facet normal 0 -0.156435 -0.987688
    outer loop
      vertex 21 18 18.5
      vertex 24 18.5408 18.4143
      vertex 24 18 18.5
    endloop
  endfacet
  facet normal -0 -0.156435 -0.987688
    outer loop
      vertex 24 18.5408 18.4143
      vertex 21 18 18.5
      vertex 21 18.5408 18.4143
    endloop
  endfacet
  facet normal 0 0.987688 0.156435
    outer loop
      vertex 5 16.3357 16.2092
      vertex 2 16.25 16.75
      vertex 5 16.25 16.75
    endloop
  endfacet
  facet normal 0 0.987688 0.156435
    outer loop
      vertex 2 16.25 16.75
      vertex 5 16.3357 16.2092
      vertex 2 16.3357 16.2092
    endloop
  endfacet
  facet normal 0 0.987688 0.156435
    outer loop
      vertex 24 16.3357 16.2092
      vertex 21 16.25 16.75
      vertex 24 16.25 16.75
    endloop
  endfacet
  facet normal 0 0.987688 0.156435
    outer loop
      vertex 21 16.25 16.75
      vertex 24 16.3357 16.2092
      vertex 21 16.3357 16.2092
    endloop
  endfacet
  facet normal 0 0.891007 0.45399
    outer loop
      vertex 5 16.5842 15.7214
      vertex 2 16.3357 16.2092
      vertex 5 16.3357 16.2092
    endloop
  endfacet
  facet normal 0 0.891007 0.45399
    outer loop
      vertex 2 16.3357 16.2092
      vertex 5 16.5842 15.7214
      vertex 2 16.5842 15.7214
    endloop
  endfacet
  facet normal 0 0.891007 0.45399
    outer loop
      vertex 24 16.5842 15.7214
      vertex 21 16.3357 16.2092
      vertex 24 16.3357 16.2092
    endloop
  endfacet
  facet normal 0 0.891007 0.45399
    outer loop
      vertex 21 16.3357 16.2092
      vertex 24 16.5842 15.7214
      vertex 21 16.5842 15.7214
    endloop
  endfacet
  facet normal 0 -0.453991 0.891006
    outer loop
      vertex 2 19.0286 15.3342
      vertex 5 18.5408 15.0857
      vertex 5 19.0286 15.3342
    endloop
  endfacet
  facet normal 0 -0.453991 0.891006
    outer loop
      vertex 5 18.5408 15.0857
      vertex 2 19.0286 15.3342
      vertex 2 18.5408 15.0857
    endloop
  endfacet
  facet normal 0 -0.453991 0.891006
    outer loop
      vertex 21 19.0286 15.3342
      vertex 24 18.5408 15.0857
      vertex 24 19.0286 15.3342
    endloop
  endfacet
  facet normal 0 -0.453991 0.891006
    outer loop
      vertex 24 18.5408 15.0857
      vertex 21 19.0286 15.3342
      vertex 21 18.5408 15.0857
    endloop
  endfacet
  facet normal 0 -0.891007 0.45399
    outer loop
      vertex 2 19.4158 15.7214
      vertex 5 19.6643 16.2092
      vertex 2 19.6643 16.2092
    endloop
  endfacet
  facet normal 0 -0.891007 0.45399
    outer loop
      vertex 5 19.6643 16.2092
      vertex 2 19.4158 15.7214
      vertex 5 19.4158 15.7214
    endloop
  endfacet
  facet normal 0 -0.891007 0.45399
    outer loop
      vertex 21 19.4158 15.7214
      vertex 24 19.6643 16.2092
      vertex 21 19.6643 16.2092
    endloop
  endfacet
  facet normal 0 -0.891007 0.45399
    outer loop
      vertex 24 19.6643 16.2092
      vertex 21 19.4158 15.7214
      vertex 24 19.4158 15.7214
    endloop
  endfacet
  facet normal 0 -0.891006 -0.453991
    outer loop
      vertex 2 19.6643 17.2908
      vertex 5 19.4158 17.7786
      vertex 2 19.4158 17.7786
    endloop
  endfacet
  facet normal 0 -0.891006 -0.453991
    outer loop
      vertex 5 19.4158 17.7786
      vertex 2 19.6643 17.2908
      vertex 5 19.6643 17.2908
    endloop
  endfacet
  facet normal 0 -0.891006 -0.453991
    outer loop
      vertex 21 19.6643 17.2908
      vertex 24 19.4158 17.7786
      vertex 21 19.4158 17.7786
    endloop
  endfacet
  facet normal 0 -0.891006 -0.453991
    outer loop
      vertex 24 19.4158 17.7786
      vertex 21 19.6643 17.2908
      vertex 24 19.6643 17.2908
    endloop
  endfacet
  facet normal 0 -0.707107 -0.707107
    outer loop
      vertex 2 19.4158 17.7786
      vertex 5 19.0286 18.1658
      vertex 2 19.0286 18.1658
    endloop
  endfacet
  facet normal 0 -0.707107 -0.707107
    outer loop
      vertex 5 19.0286 18.1658
      vertex 2 19.4158 17.7786
      vertex 5 19.4158 17.7786
    endloop
  endfacet
  facet normal 0 -0.707107 -0.707107
    outer loop
      vertex 21 19.4158 17.7786
      vertex 24 19.0286 18.1658
      vertex 21 19.0286 18.1658
    endloop
  endfacet
  facet normal 0 -0.707107 -0.707107
    outer loop
      vertex 24 19.0286 18.1658
      vertex 21 19.4158 17.7786
      vertex 24 19.4158 17.7786
    endloop
  endfacet
  facet normal 0 -0.987688 -0.156435
    outer loop
      vertex 2 19.75 16.75
      vertex 5 19.6643 17.2908
      vertex 2 19.6643 17.2908
    endloop
  endfacet
  facet normal 0 -0.987688 -0.156435
    outer loop
      vertex 5 19.6643 17.2908
      vertex 2 19.75 16.75
      vertex 5 19.75 16.75
    endloop
  endfacet
  facet normal 0 -0.987688 -0.156435
    outer loop
      vertex 21 19.75 16.75
      vertex 24 19.6643 17.2908
      vertex 21 19.6643 17.2908
    endloop
  endfacet
  facet normal 0 -0.987688 -0.156435
    outer loop
      vertex 24 19.6643 17.2908
      vertex 21 19.75 16.75
      vertex 24 19.75 16.75
    endloop
  endfacet
  facet normal 0 -0.707107 0.707107
    outer loop
      vertex 2 19.0286 15.3342
      vertex 5 19.4158 15.7214
      vertex 2 19.4158 15.7214
    endloop
  endfacet
  facet normal 0 -0.707107 0.707107
    outer loop
      vertex 5 19.4158 15.7214
      vertex 2 19.0286 15.3342
      vertex 5 19.0286 15.3342
    endloop
  endfacet
  facet normal 0 -0.707107 0.707107
    outer loop
      vertex 21 19.0286 15.3342
      vertex 24 19.4158 15.7214
      vertex 21 19.4158 15.7214
    endloop
  endfacet
  facet normal 0 -0.707107 0.707107
    outer loop
      vertex 24 19.4158 15.7214
      vertex 21 19.0286 15.3342
      vertex 24 19.0286 15.3342
    endloop
  endfacet
  facet normal 0 -0.987688 0.156435
    outer loop
      vertex 2 19.6643 16.2092
      vertex 5 19.75 16.75
      vertex 2 19.75 16.75
    endloop
  endfacet
  facet normal 0 -0.987688 0.156435
    outer loop
      vertex 5 19.75 16.75
      vertex 2 19.6643 16.2092
      vertex 5 19.6643 16.2092
    endloop
  endfacet
  facet normal 0 -0.987688 0.156435
    outer loop
      vertex 21 19.6643 16.2092
      vertex 24 19.75 16.75
      vertex 21 19.75 16.75
    endloop
  endfacet
  facet normal 0 -0.987688 0.156435
    outer loop
      vertex 24 19.75 16.75
      vertex 21 19.6643 16.2092
      vertex 24 19.6643 16.2092
    endloop
  endfacet
  facet normal 0 -0.453991 -0.891006
    outer loop
      vertex 2 18.5408 18.4143
      vertex 5 19.0286 18.1658
      vertex 5 18.5408 18.4143
    endloop
  endfacet
  facet normal -0 -0.453991 -0.891006
    outer loop
      vertex 5 19.0286 18.1658
      vertex 2 18.5408 18.4143
      vertex 2 19.0286 18.1658
    endloop
  endfacet
  facet normal 0 -0.453991 -0.891006
    outer loop
      vertex 21 18.5408 18.4143
      vertex 24 19.0286 18.1658
      vertex 24 18.5408 18.4143
    endloop
  endfacet
  facet normal -0 -0.453991 -0.891006
    outer loop
      vertex 24 19.0286 18.1658
      vertex 21 18.5408 18.4143
      vertex 21 19.0286 18.1658
    endloop
  endfacet
  facet normal -0 0.156433 0.987688
    outer loop
      vertex 2 18 15
      vertex 5 17.4592 15.0857
      vertex 5 18 15
    endloop
  endfacet
  facet normal 0 0.156433 0.987688
    outer loop
      vertex 5 17.4592 15.0857
      vertex 2 18 15
      vertex 2 17.4592 15.0857
    endloop
  endfacet
  facet normal -0 0.156433 0.987688
    outer loop
      vertex 21 18 15
      vertex 24 17.4592 15.0857
      vertex 24 18 15
    endloop
  endfacet
  facet normal 0 0.156433 0.987688
    outer loop
      vertex 24 17.4592 15.0857
      vertex 21 18 15
      vertex 21 17.4592 15.0857
    endloop
  endfacet
  facet normal 0 0.45399 -0.891007
    outer loop
      vertex 2 16.9714 18.1658
      vertex 5 17.4592 18.4143
      vertex 5 16.9714 18.1658
    endloop
  endfacet
  facet normal 0 0.45399 -0.891007
    outer loop
      vertex 5 17.4592 18.4143
      vertex 2 16.9714 18.1658
      vertex 2 17.4592 18.4143
    endloop
  endfacet
  facet normal 0 0.45399 -0.891007
    outer loop
      vertex 21 16.9714 18.1658
      vertex 24 17.4592 18.4143
      vertex 24 16.9714 18.1658
    endloop
  endfacet
  facet normal 0 0.45399 -0.891007
    outer loop
      vertex 24 17.4592 18.4143
      vertex 21 16.9714 18.1658
      vertex 21 17.4592 18.4143
    endloop
  endfacet
  facet normal 0 0.707109 0.707105
    outer loop
      vertex 5 16.9714 15.3342
      vertex 2 16.5842 15.7214
      vertex 5 16.5842 15.7214
    endloop
  endfacet
  facet normal 0 0.707109 0.707105
    outer loop
      vertex 2 16.5842 15.7214
      vertex 5 16.9714 15.3342
      vertex 2 16.9714 15.3342
    endloop
  endfacet
  facet normal 0 0.707109 0.707105
    outer loop
      vertex 24 16.9714 15.3342
      vertex 21 16.5842 15.7214
      vertex 24 16.5842 15.7214
    endloop
  endfacet
  facet normal 0 0.707109 0.707105
    outer loop
      vertex 21 16.5842 15.7214
      vertex 24 16.9714 15.3342
      vertex 21 16.9714 15.3342
    endloop
  endfacet
  facet normal 0 0.156435 -0.987688
    outer loop
      vertex 2 17.4592 18.4143
      vertex 5 18 18.5
      vertex 5 17.4592 18.4143
    endloop
  endfacet
  facet normal 0 0.156435 -0.987688
    outer loop
      vertex 5 18 18.5
      vertex 2 17.4592 18.4143
      vertex 2 18 18.5
    endloop
  endfacet
  facet normal 0 0.156435 -0.987688
    outer loop
      vertex 21 17.4592 18.4143
      vertex 24 18 18.5
      vertex 24 17.4592 18.4143
    endloop
  endfacet
  facet normal 0 0.156435 -0.987688
    outer loop
      vertex 24 18 18.5
      vertex 21 17.4592 18.4143
      vertex 21 18 18.5
    endloop
  endfacet
  facet normal -0 0.45399 0.891007
    outer loop
      vertex 2 17.4592 15.0857
      vertex 5 16.9714 15.3342
      vertex 5 17.4592 15.0857
    endloop
  endfacet
  facet normal 0 0.45399 0.891007
    outer loop
      vertex 5 16.9714 15.3342
      vertex 2 17.4592 15.0857
      vertex 2 16.9714 15.3342
    endloop
  endfacet
  facet normal -0 0.45399 0.891007
    outer loop
      vertex 21 17.4592 15.0857
      vertex 24 16.9714 15.3342
      vertex 24 17.4592 15.0857
    endloop
  endfacet
  facet normal 0 0.45399 0.891007
    outer loop
      vertex 24 16.9714 15.3342
      vertex 21 17.4592 15.0857
      vertex 21 16.9714 15.3342
    endloop
  endfacet
  facet normal 0 0.987688 -0.156435
    outer loop
      vertex 5 16.25 16.75
      vertex 2 16.3357 17.2908
      vertex 5 16.3357 17.2908
    endloop
  endfacet
  facet normal 0 0.987688 -0.156435
    outer loop
      vertex 2 16.3357 17.2908
      vertex 5 16.25 16.75
      vertex 2 16.25 16.75
    endloop
  endfacet
  facet normal 0 0.987688 -0.156435
    outer loop
      vertex 24 16.25 16.75
      vertex 21 16.3357 17.2908
      vertex 24 16.3357 17.2908
    endloop
  endfacet
  facet normal 0 0.987688 -0.156435
    outer loop
      vertex 21 16.3357 17.2908
      vertex 24 16.25 16.75
      vertex 21 16.25 16.75
    endloop
  endfacet
  facet normal 0 0.891006 -0.453991
    outer loop
      vertex 5 16.3357 17.2908
      vertex 2 16.5842 17.7786
      vertex 5 16.5842 17.7786
    endloop
  endfacet
  facet normal 0 0.891006 -0.453991
    outer loop
      vertex 2 16.5842 17.7786
      vertex 5 16.3357 17.2908
      vertex 2 16.3357 17.2908
    endloop
  endfacet
  facet normal 0 0.891006 -0.453991
    outer loop
      vertex 24 16.3357 17.2908
      vertex 21 16.5842 17.7786
      vertex 24 16.5842 17.7786
    endloop
  endfacet
  facet normal 0 0.891006 -0.453991
    outer loop
      vertex 21 16.5842 17.7786
      vertex 24 16.3357 17.2908
      vertex 21 16.3357 17.2908
    endloop
  endfacet
  facet normal 0 0.707109 -0.707105
    outer loop
      vertex 5 16.5842 17.7786
      vertex 2 16.9714 18.1658
      vertex 5 16.9714 18.1658
    endloop
  endfacet
  facet normal 0 0.707109 -0.707105
    outer loop
      vertex 2 16.9714 18.1658
      vertex 5 16.5842 17.7786
      vertex 2 16.5842 17.7786
    endloop
  endfacet
  facet normal 0 0.707109 -0.707105
    outer loop
      vertex 24 16.5842 17.7786
      vertex 21 16.9714 18.1658
      vertex 24 16.9714 18.1658
    endloop
  endfacet
  facet normal 0 0.707109 -0.707105
    outer loop
      vertex 21 16.9714 18.1658
      vertex 24 16.5842 17.7786
      vertex 21 16.5842 17.7786
    endloop
  endfacet
endsolid OpenSCAD_Model
